<?xml version="1.0" standalone="no"?>
<!DOCTYPE svg PUBLIC "-//W3C//DTD SVG 20010904//EN"
 "http://www.w3.org/TR/2001/REC-SVG-20010904/DTD/svg10.dtd">
<svg version="1.0" xmlns="http://www.w3.org/2000/svg"
 width="210.000000pt" height="210.000000pt" viewBox="0 0 210.000000 210.000000"
 preserveAspectRatio="xMidYMid meet">
<metadata>
Created by potrace 1.11, written by Peter Selinger 2001-2013
</metadata>
<g transform="translate(0.000000,210.000000) scale(0.100000,-0.100000)"
fill="#000000" stroke="none">
<path d="M958 2069 c-226 -18 -437 -113 -607 -274 -100 -95 -163 -181 -221
-300 -82 -167 -114 -342 -98 -535 10 -126 41 -238 98 -355 58 -119 121 -205
221 -300 126 -119 272 -201 439 -247 74 -20 108 -23 260 -23 152 0 186 3 260
23 167 46 313 128 439 247 100 95 163 181 221 300 79 161 95 237 95 445 0 152
-3 186 -23 260 -46 167 -128 313 -247 439 -224 236 -510 345 -837 320z m709
-1045 c78 -58 93 -137 47 -247 -73 -175 -216 -318 -390 -390 -94 -39 -161 -52
-274 -52 -150 0 -267 34 -388 112 -199 127 -349 394 -288 511 18 34 54 68 86
81 16 6 232 9 602 8 568 -2 577 -2 605 -23z"/>
</g>
</svg>
